# xmcd
#
# Track frame offsets:
# 150
# 3768
# 13181
# 29440
# 41981
# 53956
# 64763
# 78171
# 87918
# 106545
# 122272
# 138039
# 147301
#
# Disc length: 2191 seconds
#
# Revision: 0
# Processed by: cddbd v1.5.1PL0 Copyright (c) Steve Scherf et al.
# Submitted via: Audion 3.0.2 (http://www.panic.com/audion/)
#
DISCID=9b088d0d
DTITLE=Felix - S'Grosse Felix Liederalbum
DYEAR=1900
DGENRE=
TTITLE0=Briefe vom Felix
TTITLE1=Felix, Im Buckinghampalast
TTITLE2=Känguruh
TTITLE3=Bonjour Bonjour
TTITLE4=De Pharao
TTITLE5=Afrika Afrika
TTITLE6=Felix in New York
TTITLE7=Pinguin
TTITLE8=Unter Wasser
TTITLE9=Planetarium
TTITLE10=Mondrakete
TTITLE11=Stracciatella
TTITLE12=Rägewald
EXTD=
EXTT0=
EXTT1=
EXTT2=
EXTT3=
EXTT4=
EXTT5=
EXTT6=
EXTT7=
EXTT8=
EXTT9=
EXTT10=
EXTT11=
EXTT12=
PLAYORDER=
